HIERARCHY
ROOT Hips
{
  OFFSET 51.6058 56.1214 -15.1003
  CHANNELS 6 Xposition Yposition Zposition Zrotation Xrotation Yrotation
  JOINT spine
  {
    OFFSET 0 7.96568 0.458067
    CHANNELS 3 Zrotation Xrotation Yrotation
    JOINT spine1
    {
      OFFSET 0 10.2431 0
      CHANNELS 3 Zrotation Xrotation Yrotation
      JOINT spine2
      {
        OFFSET 0 9.81475 0
        CHANNELS 3 Zrotation Xrotation Yrotation
        JOINT Neck
        {
          OFFSET 0 25.1986 1.20138
          CHANNELS 3 Zrotation Xrotation Yrotation
          JOINT Head
          {
            OFFSET 0 7.61315 0
            CHANNELS 3 Zrotation Xrotation Yrotation
            End Site
            {
              OFFSET 0 18.4281 -6.07733
            }
          }
        }
        JOINT RightShoulder
        {
          OFFSET -4.1327 10.5992 -0.575451
          CHANNELS 3 Zrotation Xrotation Yrotation
          JOINT RightArm
          {
            OFFSET 0 13.9018 0
            CHANNELS 3 Zrotation Xrotation Yrotation
            JOINT RightArmRoll
            {
              OFFSET 0 7.01789 0
              CHANNELS 3 Zrotation Xrotation Yrotation
              JOINT RightForeArm
              {
                OFFSET 0 20.4406 0
                CHANNELS 3 Zrotation Xrotation Yrotation
                JOINT RightForeArmRoll
                {
                  OFFSET 0 7.87515 0
                  CHANNELS 3 Zrotation Xrotation Yrotation
                  JOINT RightHand
                  {
                    OFFSET 0 15.8037 0
                    CHANNELS 3 Zrotation Xrotation Yrotation
                    End Site
                    {
                      OFFSET 0 0 0
                    }
                  }
                }
              }
            }
          }
        }
        JOINT LeftShoulder
        {
          OFFSET 4.1327 10.5992 -0.575451
          CHANNELS 3 Zrotation Xrotation Yrotation
          JOINT LeftArm
          {
            OFFSET 0 13.9018 0
            CHANNELS 3 Zrotation Xrotation Yrotation
            JOINT LeftArmRoll
            {
              OFFSET 0 7.01789 0
              CHANNELS 3 Zrotation Xrotation Yrotation
              JOINT LeftForeArm
              {
                OFFSET 0 20.4406 0
                CHANNELS 3 Zrotation Xrotation Yrotation
                JOINT LeftForeArmRoll
                {
                  OFFSET 0 7.87515 0
                  CHANNELS 3 Zrotation Xrotation Yrotation
                  JOINT LeftHand
                  {
                    OFFSET 0 15.8037 0
                    CHANNELS 3 Zrotation Xrotation Yrotation
                    End Site
                    {
                      OFFSET 0 0 0
                    }
                  }
                }
              }
            }
          }
        }
      }
    }
  }
  JOINT RightUpLeg
  {
    OFFSET -7.06048 -1.2947 -1.0861
    CHANNELS 3 Zrotation Xrotation Yrotation
    JOINT RightUpLegRoll
    {
      OFFSET 0 18.5308 0
      CHANNELS 3 Zrotation Xrotation Yrotation
      JOINT RightLeg
      {
        OFFSET 0 -22.9476 0
        CHANNELS 3 Zrotation Xrotation Yrotation
        JOINT RightLegRoll
        {
          OFFSET 0 23.0226 0
          CHANNELS 3 Zrotation Xrotation Yrotation
          JOINT RightFoot
          {
            OFFSET 0 19.1625 0
            CHANNELS 3 Zrotation Xrotation Yrotation
            JOINT RightToeBase
            {
              OFFSET 0 16.0188 0
              CHANNELS 3 Zrotation Xrotation Yrotation
              End Site
              {
                OFFSET 0.00678979 7.75782 -0.894206
              }
            }
          }
        }
      }
    }
  }
  JOINT LeftUpLeg
  {
    OFFSET 7.06048 -1.2947 -1.0861
    CHANNELS 3 Zrotation Xrotation Yrotation
    JOINT LeftUpLegRoll
    {
      OFFSET 0 18.5309 0
      CHANNELS 3 Zrotation Xrotation Yrotation
      JOINT LeftLeg
      {
        OFFSET 0 22.9475 0
        CHANNELS 3 Zrotation Xrotation Yrotation
        JOINT LeftLegRoll
        {
          OFFSET 0 23.2355 0
          CHANNELS 3 Zrotation Xrotation Yrotation
          JOINT LeftFoot
          {
            OFFSET 0 18.9496 0
            CHANNELS 3 Zrotation Xrotation Yrotation
            JOINT LeftToeBase
            {
              OFFSET 0 16.0188 0
              CHANNELS 3 Zrotation Xrotation Yrotation
              End Site
              {
                OFFSET -0.0304289 7.75783 -0.894206
              }
            }
          }
        }
      }
    }
  }
}
MOTION
Frames: 11
Frame Time: 0.00208333
51.3337 58.4076 -12.7022 4.13547 11.4168 6.15517 -0.566221 2.40742 -0.0763521 -1.14588 8.81776 -0.0649384 -1.14848 10.4627 -0.0455858 4.24932 15.0953 -5.23633 -2.68808 9.89634 -4.14231 61.2827 -4.7441 -3.10443 109.946 27.2924 -31.7642 7.95139e-015 4.77083e-015 -6.36111e-015 23.3057 68.041 -19.916 -7.91306e-006 -1.83335e-006 -2.99999 8.02925 -4.95142 0.697639 -58.4326 1.80803 -1.146 -107.54 31.1112 35.4154 3.33484e-006 1.61408e-006 -2.41779e-006 -31.0181 69.9401 27.376 4.20504e-006 1.80556e-006 3.00757 -8.03009 -4.95139 -0.697645 50.5702 79.6129 126.19 180 7.01602e-015 179.194 -151.466 79.6783 151.805 -1.50596e-006 2.18708e-006 1.57474 -12.424 64.1619 17.13 8.13649 25.2327 -3.48774 29.8134 85.1623 148.951 4.5067e-006 -1.99009e-005 -1.06467 10.1967 -79.2166 11.483 -2.5684e-006 -5.42585e-006 -1.43993 12.0289 62.8634 -16.4505 -8.1365 25.2328 3.4876 
51.3237 58.3984 -12.7372 4.17721 11.1935 6.13312 -0.573071 2.40706 -0.0755379 -1.15952 8.81701 -0.0619312 -1.16219 10.4619 -0.0423403 4.22279 15.0569 -5.20563 -2.66938 9.88501 -4.12001 61.2697 -4.74884 -3.10639 110.081 27.376 -31.6475 7.95139e-015 1.43125e-014 -0 23.3129 67.7217 -19.7896 -7.91306e-006 -1.83335e-006 -2.99999 8.02925 -4.95142 0.697639 -58.5176 1.80579 -1.1321 -107.576 31.1706 35.2696 3.33484e-006 1.61408e-006 -2.41779e-006 -30.9051 69.658 27.1267 4.20504e-006 1.80556e-006 3.00757 -8.03009 -4.95139 -0.697645 51.3449 79.7422 125.41 180 7.01601e-015 179.189 -151.287 79.6749 151.646 -1.50596e-006 2.18708e-006 1.57702 -12.4285 64.1619 17.1295 8.13649 25.2327 -3.48774 30.6932 85.3474 148.044 4.5067e-006 -1.99009e-005 -1.06924 10.2128 -79.2261 11.5036 -2.5684e-006 -5.42585e-006 -1.44293 12.0444 62.8723 -16.4529 -8.1365 25.2328 3.4876 
51.3108 58.3808 -12.7675 4.22223 10.96 6.1055 -0.58043 2.40876 -0.0735699 -1.17413 8.82036 -0.056394 -1.17691 10.4652 -0.0365426 4.193 15.016 -5.17374 -2.64632 9.87548 -4.09743 61.2513 -4.75484 -3.10874 110.221 27.4576 -31.5316 9.93923e-015 8.74653e-015 -6.36111e-015 23.3148 67.4006 -19.6591 -7.91306e-006 -1.83335e-006 -2.99999 8.02925 -4.95142 0.697639 -58.5982 1.80387 -1.11908 -107.619 31.2283 35.1249 3.33484e-006 1.61408e-006 -2.41779e-006 -30.787 69.3725 26.8722 4.20504e-006 1.80556e-006 3.00757 -8.03009 -4.95139 -0.697645 52.1654 79.879 124.586 180 7.016e-015 179.183 -151.094 79.6698 151.473 -1.50596e-006 2.18708e-006 1.57949 -12.4327 64.1601 17.1281 8.13649 25.2327 -3.48774 31.6563 85.5429 147.051 4.5067e-006 -1.99009e-005 -1.07399 10.2327 -79.2364 11.5293 -2.5684e-006 -5.42585e-006 -1.44605 12.0593 62.8817 -16.4556 -8.1365 25.2328 3.4876 
51.3085 58.3693 -12.7882 4.26973 10.7179 6.07329 -0.588177 2.41217 -0.0706237 -1.18946 8.82715 -0.0487117 -1.19238 10.472 -0.0285826 4.16032 14.9729 -5.14084 -2.61946 9.86747 -4.07464 61.2284 -4.76189 -3.11141 110.364 27.5375 -31.4164 1.59028e-015 6.75868e-015 -0 23.3123 67.078 -19.5253 -7.91306e-006 -1.83335e-006 -2.99999 8.02925 -4.95142 0.697639 -58.6747 1.8023 -1.10691 -107.667 31.2846 34.981 3.33484e-006 1.61408e-006 -2.41779e-006 -30.6648 69.0836 26.6139 4.20504e-006 1.80556e-006 3.00757 -8.03009 -4.95139 -0.697645 53.0309 80.0215 123.717 180 7.01599e-015 179.177 -150.889 79.6632 151.29 -1.50596e-006 2.18708e-006 1.58211 -12.4367 64.1568 17.1258 8.13649 25.2327 -3.48774 32.7191 85.7467 145.955 4.5067e-006 -1.99009e-005 -1.0789 10.2561 -79.2473 11.5595 -2.5684e-006 -5.42585e-006 -1.44927 12.0737 62.8915 -16.4583 -8.1365 25.2328 3.4876 
51.3007 58.3567 -12.8221 4.31897 10.4689 6.03747 -0.596187 2.41698 -0.0668746 -1.20528 8.83669 -0.0392693 -1.20837 10.4816 -0.0188501 4.12513 14.928 -5.10713 -2.58937 9.86067 -4.05175 61.2017 -4.76978 -3.11433 110.511 27.6159 -31.3019 2.62396e-014 2.3059e-014 -6.36111e-015 23.3061 66.7545 -19.389 -7.91306e-006 -1.83335e-006 -2.99999 8.02925 -4.95142 0.697639 -58.7476 1.80109 -1.09552 -107.721 31.3396 34.8377 3.33484e-006 1.61408e-006 -2.41779e-006 -30.5399 68.7918 26.3531 4.20504e-006 1.80556e-006 3.00757 -8.03009 -4.95139 -0.697645 53.9405 80.1679 122.804 180 7.01598e-015 179.171 -150.675 79.6554 151.099 -1.50596e-006 2.18708e-006 1.58487 -12.4406 64.1522 17.1228 8.13649 25.2327 -3.48774 33.9004 85.9567 144.74 4.5067e-006 -1.99009e-005 -1.08392 10.2824 -79.2588 11.5935 -2.5684e-006 -5.42585e-006 -1.45255 12.0876 62.9015 -16.4612 -8.1365 25.2328 3.4876 
51.2973 58.3408 -12.8547 4.36919 10.2147 5.999 -0.604339 2.42283 -0.0624982 -1.22136 8.84833 -0.0284518 -1.22463 10.4932 -0.00773505 4.0878 14.8816 -5.07281 -2.5566 9.85476 -4.02883 61.1721 -4.77829 -3.11743 110.659 27.6932 -31.1878 3.57812e-015 5.56597e-015 3.18055e-015 23.297 66.4303 -19.2511 -7.91306e-006 -1.83335e-006 -2.99999 8.02925 -4.95142 0.697639 -58.8173 1.80025 -1.08486 -107.779 31.3936 34.6948 3.33484e-006 1.61408e-006 -2.41779e-006 -30.4131 68.4974 26.0909 4.20504e-006 1.80556e-006 3.00757 -8.03009 -4.95139 -0.697645 54.8926 80.3163 121.849 180 7.01596e-015 179.165 -150.455 79.6468 150.903 -1.50596e-006 2.18708e-006 1.58775 -12.4445 64.1466 17.1193 8.13649 25.2327 -3.48774 35.2217 86.1705 143.382 4.5067e-006 -1.99009e-005 -1.08902 10.3113 -79.2707 11.6306 -2.5684e-006 -5.42585e-006 -1.45588 12.1008 62.9116 -16.4641 -8.1365 25.2328 3.4876 
51.2885 58.3184 -12.8863 4.41966 9.95697 5.95886 -0.61251 2.42939 -0.05767 -1.23746 8.86138 -0.0166442 -1.24093 10.5062 0.0043728 4.04872 14.8339 -5.03807 -2.52172 9.84944 -4.00597 61.1404 -4.78722 -3.12064 110.809 27.7695 -31.074 2.5842e-014 2.22639e-014 -6.36111e-015 23.2856 66.1058 -19.1123 -7.91306e-006 -1.83335e-006 -2.99999 8.02925 -4.95142 0.697639 -58.8841 1.79981 -1.07488 -107.84 31.4468 34.5521 3.33484e-006 1.61408e-006 -2.41779e-006 -30.2857 68.2007 25.8283 4.20504e-006 1.80556e-006 3.00757 -8.03009 -4.95139 -0.697645 55.885 80.4651 120.854 180 7.01595e-015 179.158 -150.231 79.6375 150.703 -1.50596e-006 2.18708e-006 1.59071 -12.4483 64.1402 17.1154 8.13649 25.2327 -3.48774 36.7071 86.386 141.86 4.5067e-006 -1.99009e-005 -1.09416 10.3423 -79.2828 11.6703 -2.5684e-006 -5.42585e-006 -1.45923 12.1133 62.9215 -16.467 -8.1365 25.2328 3.4876 
51.2876 58.3002 -12.9023 4.4697 9.69743 5.91799 -0.620577 2.43633 -0.0525655 -1.25334 8.87518 -0.00423159 -1.25701 10.52 0.0170834 4.00824 14.7854 -5.0031 -2.48529 9.84442 -3.98326 61.1074 -4.79636 -3.12389 110.959 27.8452 -30.9604 1.15295e-014 1.23246e-014 -6.36111e-015 23.2725 65.7815 -18.9732 -7.91306e-006 -1.83335e-006 -2.99999 8.02925 -4.95142 0.697639 -58.9484 1.79978 -1.06552 -107.906 31.4993 34.4094 3.33484e-006 1.61408e-006 -2.41779e-006 -30.1584 67.9019 25.5665 4.20504e-006 1.80556e-006 3.00757 -8.03009 -4.95139 -0.697645 56.9145 80.6124 119.823 180 7.01594e-015 179.151 -150.007 79.628 150.503 -1.50596e-006 2.18708e-006 1.59373 -12.4523 64.1332 17.1111 8.13649 25.2327 -3.48774 38.3839 86.6008 140.146 4.5067e-006 -1.99009e-005 -1.0993 10.3749 -79.295 11.7117 -2.5684e-006 -5.42585e-006 -1.46257 12.125 62.9311 -16.4699 -8.1365 25.2328 3.4876 
51.2967 58.2968 -12.9339 4.51862 9.43776 5.87735 -0.628416 2.44331 -0.0473602 -1.26876 8.88906 0.00840069 -1.27264 10.5339 0.0300064 3.96675 14.7363 -4.9681 -2.44787 9.83937 -3.96078 61.0739 -4.8055 -3.1271 111.109 27.9206 -30.8469 -7.95139e-016 4.77083e-015 -9.54166e-015 23.2584 65.4578 -18.8346 -7.91306e-006 -1.83335e-006 -2.99999 8.02925 -4.95142 0.697639 -59.0107 1.80017 -1.05675 -107.974 31.5513 34.2664 3.33484e-006 1.61408e-006 -2.41779e-006 -30.0321 67.6015 25.3064 4.20504e-006 1.80556e-006 3.00757 -8.03009 -4.95139 -0.697645 57.9771 80.7567 118.759 180 7.01593e-015 179.145 -149.786 79.6184 150.305 -1.50596e-006 2.18708e-006 1.5968 -12.4564 64.1259 17.1066 8.13649 25.2327 -3.48774 40.2823 86.8124 138.21 4.5067e-006 -1.99009e-005 -1.1044 10.4089 -79.3072 11.7543 -2.5684e-006 -5.42585e-006 -1.46587 12.1358 62.9403 -16.4726 -8.1365 25.2328 3.4876 
51.2512 58.2554 -12.9652 4.56575 9.17968 5.83788 -0.635904 2.44999 -0.0422296 -1.28349 8.90234 0.0208672 -1.28756 10.5472 0.0427517 3.9246 14.687 -4.93324 -2.41002 9.83401 -3.93863 61.0406 -4.81442 -3.13021 111.257 27.9959 -30.7332 4.17448e-015 9.93923e-015 -1.27222e-014 23.2437 65.1351 -18.6969 -7.91306e-006 -1.83335e-006 -2.99999 8.02925 -4.95142 0.697639 -59.0713 1.801 -1.04849 -108.044 31.6031 34.123 3.33484e-006 1.61408e-006 -2.41779e-006 -29.9077 67.2998 25.0488 4.20504e-006 1.80556e-006 3.00757 -8.03009 -4.95139 -0.697645 59.0679 80.8964 117.667 180 7.01592e-015 179.138 -149.569 79.6092 150.111 -1.50596e-006 2.18708e-006 1.59989 -12.4606 64.1185 17.1021 8.13649 25.2327 -3.48774 42.4341 87.0184 136.022 4.5067e-006 -1.99009e-005 -1.10942 10.4437 -79.3192 11.7974 -2.5684e-006 -5.42585e-006 -1.4691 12.1458 62.9489 -16.4751 -8.1365 25.2328 3.4876 
51.2515 58.2485 -12.9934 4.61047 8.92487 5.80052 -0.642919 2.45603 -0.0373493 -1.29728 8.91435 0.0327825 -1.30154 10.5592 0.0549284 3.88217 14.6378 -4.89874 -2.37229 9.82801 -3.91689 61.0085 -4.82292 -3.13314 111.402 28.0714 -30.6193 2.88238e-014 2.3059e-014 -0 23.229 64.8137 -18.5609 -7.91306e-006 -1.83335e-006 -2.99999 8.02925 -4.95142 0.697639 -59.1305 1.8023 -1.04071 -108.115 31.6548 33.9788 3.33484e-006 1.61408e-006 -2.41779e-006 -29.7857 66.9971 24.7945 4.20504e-006 1.80556e-006 3.00757 -8.03009 -4.95139 -0.697645 60.1805 81.0298 116.554 180 7.0159e-015 179.131 -149.359 79.6005 149.924 -1.50596e-006 2.18708e-006 1.60297 -12.4651 64.1113 17.0977 8.13649 25.2327 -3.48774 44.8713 87.216 133.55 4.5067e-006 -1.99009e-005 -1.11434 10.4788 -79.3309 11.8403 -2.5684e-006 -5.42585e-006 -1.47224 12.1548 62.9566 -16.4774 -8.1365 25.2328 3.4876 
